<svg viewBox="0 0 680 320" xmlns="http://www.w3.org/2000/svg">
<defs>
<linearGradient id="bgGrad2" x1="0" y1="0" x2="1" y2="1">
<stop offset="0%" stop-color="#1e3156"/>
<stop offset="100%" stop-color="#496995"/>
</linearGradient>
</defs>
<rect width="680" height="320" fill="url(#bgGrad2)"/>
<g stroke="#ffffff" stroke-width="1" fill="none" opacity="0.18">
<circle cx="340" cy="160" r="90"/>
<circle cx="340" cy="160" r="120"/>
<circle cx="340" cy="160" r="150"/>
</g>
<path d="M340 70 L410 100 L410 165 C410 215 380 245 340 260 C300 245 270 215 270 165 L270 100 Z" fill="#a5b5d2"/>
<path d="M340 70 L410 100 L410 165 C410 215 380 245 340 260 Z" fill="#8fa3c4"/>
<path d="M318 158 L336 176 L368 138" fill="none" stroke="#1e3156" stroke-width="7" stroke-linecap="round" stroke-linejoin="round"/>
<g>
<circle cx="452" cy="228" r="26" fill="none" stroke="#fdd6cd" stroke-width="8"/>
<line x1="470" y1="246" x2="494" y2="270" stroke="#fdd6cd" stroke-width="9" stroke-linecap="round"/>
</g>
<g fill="#fdd6cd" opacity="0.9">
<circle cx="150" cy="90" r="4"/>
<circle cx="180" cy="70" r="3"/>
<circle cx="130" cy="130" r="3"/>
<circle cx="540" cy="90" r="4"/>
<circle cx="510" cy="70" r="3"/>
<circle cx="560" cy="130" r="3"/>
</g>
</svg>
